<?xml version="1.0" encoding="UTF-8"?>
<svg version="1.1" xmlns="http://www.w3.org/2000/svg" width="365" height="365">
<path d="M0 0 C1.09054688 0.26683594 2.18109375 0.53367187 3.3046875 0.80859375 C16.5088389 4.44054248 28.9141826 10.69770891 39 20 C39.91394531 20.82242187 40.82789063 21.64484375 41.76953125 22.4921875 C48.60893888 28.9479895 53.55300468 35.73152078 58 44 C58.55558594 45.02867188 59.11117187 46.05734375 59.68359375 47.1171875 C65.33474618 58.41949236 68.5454059 71.35042513 69 84 C69.03996094 85.051875 69.07992187 86.10375 69.12109375 87.1875 C69.6268591 113.84430879 62.40008244 135.86595957 43.91796875 155.265625 C38.20645323 161.14583146 32.29229992 166.58734664 25.87890625 171.703125 C2.44100871 190.40256021 -15.34721559 211.35026745 -23 241 C-23.22558594 241.81855469 -23.45117188 242.63710937 -23.68359375 243.48046875 C-28.91474738 266.17285242 -24.22826874 291.5300712 -12.015625 311.1953125 C-8.18253821 316.64780417 -3.91419708 321.5004383 1 326 C0.55269531 325.32195312 0.10539062 324.64390625 -0.35546875 323.9453125 C-13.95675787 303.00686741 -20.4346574 281.059033 -15.47631836 256.05175781 C-11.0234577 235.87587793 -0.97409241 218.99119407 13 204 C14.09054688 202.78763672 14.09054688 202.78763672 15.203125 201.55078125 C25.51435275 190.59018228 38.35779079 182.63317019 51.125 174.875 C78.42435545 158.28107476 101.05962032 140.07442732 112 109 C112.28472848 106.93042679 112.49209425 104.84940574 112.640625 102.765625 C112.73843262 101.55994873 112.83624023 100.35427246 112.93701172 99.11206055 C113.04029785 97.83758057 113.14358398 96.56310059 113.25 95.25 C114.25127754 84.34548284 116.0174604 74.95412848 120.23583984 64.88867188 C121.55555478 61.62690999 122.63122922 58.29230696 123.6875 54.9375 C123.89125244 54.29192139 124.09500488 53.64634277 124.30493164 52.98120117 C126.49252458 45.77951203 127.78665518 38.4181732 129 31 C133.4515308 31.76450203 135.21406462 33.83597045 138.0546875 37.19921875 C142.11185889 43.04056791 144.98684662 49.57683889 148 56 C148.33 56.66 148.66 57.32 149 58 C152.96 49.09 152.96 49.09 157 40 C161 41 161 41 162.37890625 42.86328125 C167.69180618 53.85730191 169.53103764 63.80580234 169 76 C169.69867188 76.24878906 170.39734375 76.49757813 171.1171875 76.75390625 C190.29304775 85.04265885 201.42273157 101.30859805 208.95410156 119.9543457 C210.90528042 124.69942866 213.03407387 128.9275551 215.9375 133.1875 C218.9639503 137.65445754 220.18739102 140.56566045 220 146 C215.30733862 155.26538254 206.73596221 162.57521452 197 166 C188.17640575 168.59356036 179.09981607 168.20551655 170 168 C169.93941406 168.77085937 169.87882812 169.54171875 169.81640625 170.3359375 C169.69072266 171.84027344 169.69072266 171.84027344 169.5625 173.375 C169.48128906 174.37273437 169.40007812 175.37046875 169.31640625 176.3984375 C169 179 169 179 168 181 C175.34317645 179.18291121 182.50276391 177.2534263 189.57836914 174.5703125 C198.67420867 171.13444731 206.41469802 168.96494874 215.875 172.625 C220.62739056 175.00971211 223.60717063 178.21434127 226 183 C226.58315409 190.23111066 226.58315409 190.23111066 224.33203125 193.19921875 C220.8876504 195.85895003 217.69401264 195.81196394 213.4609375 196.21484375 C203.02942886 198.58135982 196.65765053 204.76272765 189.5 212.375 C180.2534306 222.12692105 169.18747878 233.50658118 155 235 C152.66698014 235.03824623 150.33288492 235.04574284 148 235 C148.15855469 235.88816406 148.31710937 236.77632812 148.48046875 237.69140625 C151.76452859 260.93648344 148.99071452 284.70991216 134.83203125 303.9453125 C129.84980442 309.71235028 124.09141429 314.44733546 118 319 C118.87567627 319.01401855 118.87567627 319.01401855 119.76904297 319.02832031 C145.18724006 319.54019713 145.18724006 319.54019713 154.66015625 328.43359375 C158.4160835 332.82463406 158.05829704 337.51360055 158 343 C139.40526725 343.09383068 120.81058317 343.16416763 102.215662 343.20724869 C93.57989162 343.22779199 84.94426914 343.25575317 76.30859375 343.30175781 C68.77351852 343.3418798 61.23855051 343.36749247 53.70337141 343.37635398 C49.72096234 343.38152627 45.73885974 343.3935065 41.75654984 343.42292023 C8.57999093 343.65824617 -21.37444139 338.49636498 -47 316 C-47.83660156 315.35417969 -48.67320313 314.70835937 -49.53515625 314.04296875 C-65.76733959 300.58903549 -75.37017963 278.58051616 -78 258 C-80.46406204 227.16020088 -69.95107141 199.76121702 -54.25 173.75 C-47.54447269 162.39040808 -43.58386431 149.2720283 -46.68359375 136.09375 C-50.40332249 125.10434394 -56.58384149 116.32437753 -66.875 110.75 C-77.99677529 105.61687294 -88.63385784 106.01294035 -100.0859375 109.875 C-107.99401326 112.92798367 -113.52120305 118.7506338 -117.75 126 C-118.36875 126.99 -118.36875 126.99 -119 128 C-119.99 128 -120.98 128 -122 128 C-122.64881448 125.45906145 -123.29412899 122.91731727 -123.9375 120.375 C-124.11990234 119.66214844 -124.30230469 118.94929688 -124.49023438 118.21484375 C-124.66748047 117.51230469 -124.84472656 116.80976562 -125.02734375 116.0859375 C-125.18968506 115.4470459 -125.35202637 114.8081543 -125.51928711 114.14990234 C-129.27347808 97.35995534 -129.07135132 76.20224523 -123 60 C-122.75862305 59.3390332 -122.51724609 58.67806641 -122.26855469 57.99707031 C-118.60452196 48.16640138 -113.79691654 40.06199407 -107 32 C-106.28972656 31.12730469 -105.57945313 30.25460938 -104.84765625 29.35546875 C-79.79263739 -0.13968003 -36.50283066 -9.26610317 0 0 Z M69 216 C69.78761719 216.02578125 70.57523438 216.0515625 71.38671875 216.078125 C85.07990184 216.79114282 97.24026683 220.29841226 107.75 229.375 C108.86375 230.674375 108.86375 230.674375 110 232 C110.73669922 232.84304687 110.73669922 232.84304687 111.48828125 233.703125 C118.97650638 242.84507727 121.29837418 253.32611027 121 265 C119.1611952 281.74373218 111.92329579 301.38166242 99 313 C99.495 313.99 99.495 313.99 100 315 C120.68615738 300.92082825 134.37300572 282.42224633 139.4375 257.875 C140.90199453 250.11184356 142.28612309 241.86736557 141 234 C138.89125716 231.44234401 136.60180772 230.12624042 133.640625 228.6953125 C132.77928955 228.27894531 131.9179541 227.86257812 131.03051758 227.43359375 C130.11294678 227.00175781 129.19537598 226.56992188 128.25 226.125 C127.30858154 225.68027344 126.36716309 225.23554688 125.3972168 224.77734375 C117.73878646 221.22273755 110.13270161 218.2795455 102 216 C100.77603516 215.63455078 100.77603516 215.63455078 99.52734375 215.26171875 C93.79083576 213.81529221 88.00906475 213.80129528 82.125 213.75 C81.29129883 213.74057373 80.45759766 213.73114746 79.59863281 213.72143555 C78.80553711 213.72570557 78.01244141 213.72997559 77.1953125 213.734375 C76.12821045 213.73775879 76.12821045 213.73775879 75.03955078 213.74121094 C72.68863749 214.03950733 71.05052248 214.83963128 69 216 Z " fill="#3BA74D" transform="translate(130,9)"/>
<path d="M0 0 C0.99 0.33 1.98 0.66 3 1 C2.34 1.515625 1.68 2.03125 1 2.5625 C-4.7869772 7.26441897 -10.19529633 12.16522129 -15.41088867 17.49609375 C-31.29425175 33.70127015 -31.29425175 33.70127015 -41 36 C-41.33 35.34 -41.66 34.68 -42 34 C-40.98292969 33.50693359 -40.98292969 33.50693359 -39.9453125 33.00390625 C-30.92074267 28.3916261 -24.33783552 22.37476535 -17.25 15.2265625 C-16.58967773 14.56132568 -15.92935547 13.89608887 -15.24902344 13.21069336 C-13.94379095 11.88967948 -12.64465546 10.56260561 -11.35253906 9.22875977 C-7.81289114 5.61901515 -4.46033057 2.42769421 0 0 Z " fill="#29913C" transform="translate(334,205)"/>
<path d="M0 0 C0.66 0 1.32 0 2 0 C-0.61102437 10.63059922 -7.42595427 19.41481528 -14 28 C-12.68 27.34 -11.36 26.68 -10 26 C-10 26.99 -10 27.98 -10 29 C-13 31.1875 -13 31.1875 -16 33 C-16.66 32.67 -17.32 32.34 -18 32 C-18.36032283 27.50746431 -18.36032283 27.50746431 -16.78515625 25.2890625 C-16.21667969 24.73992187 -15.64820313 24.19078125 -15.0625 23.625 C-11.47872262 19.80718001 -8.8383207 15.73550601 -6.1875 11.25 C-5.80279541 10.5998291 -5.41809082 9.9496582 -5.02172852 9.27978516 C-3.24295501 6.23529292 -1.51915493 3.18299127 0 0 Z " fill="#268336" transform="translate(244,295)"/>
<path d="M0 0 C0.66 0.66 1.32 1.32 2 2 C-4.42496765 12.16698178 -11.39216162 19.73129329 -21 27 C-19.35 27.33 -17.7 27.66 -16 28 C-16 28.33 -16 28.66 -16 29 C-18.31 29 -20.62 29 -23 29 C-23 28.34 -23 27.68 -23 27 C-23.66 26.67 -24.32 26.34 -25 26 C-23.42040347 24.70376621 -21.83616587 23.41318673 -20.25 22.125 C-19.36828125 21.40570313 -18.4865625 20.68640625 -17.578125 19.9453125 C-15.41823076 18.31557412 -13.460234 17.09215995 -11 16 C-11 15.34 -11 14.68 -11 14 C-10.34 14 -9.68 14 -9 14 C-8.74476563 13.44828125 -8.48953125 12.8965625 -8.2265625 12.328125 C-6.80697926 9.63362942 -5.13867746 7.23221272 -3.375 4.75 C-2.74335938 3.85796875 -2.11171875 2.9659375 -1.4609375 2.046875 C-0.73777344 1.03367187 -0.73777344 1.03367187 0 0 Z " fill="#258137" transform="translate(269,301)"/>
<path d="M0 0 C0.33 0.99 0.66 1.98 1 3 C-8.66796875 12.66796875 -8.66796875 12.66796875 -10.37768555 14.3737793 C-11.85487002 15.85452057 -13.31880927 17.34844543 -14.78125 18.84375 C-16.80929477 20.81466675 -18.40354376 21.94218449 -21 23 C-19.3773505 19.09258539 -16.72133139 16.24144162 -13.875 13.1875 C-13.14446411 12.39617676 -13.14446411 12.39617676 -12.39916992 11.58886719 C-8.51185481 7.43067014 -4.41766531 3.59489097 0 0 Z " fill="#309542" transform="translate(155,202)"/>
<path d="M0 0 C0 0.33 0 0.66 0 1 C4.29 1.66 8.58 2.32 13 3 C11 5 11 5 8.66162109 5.13525391 C7.70852051 5.08288574 6.75541992 5.03051758 5.7734375 4.9765625 C4.7421875 4.925 3.7109375 4.8734375 2.6484375 4.8203125 C1.02808594 4.72363281 1.02808594 4.72363281 -0.625 4.625 C-1.71296875 4.56828125 -2.8009375 4.5115625 -3.921875 4.453125 C-6.61522387 4.3113698 -9.3076793 4.15993358 -12 4 C-12.33 3.34 -12.66 2.68 -13 2 C-8.50343896 -0.24828052 -4.92127034 -0.16682272 0 0 Z " fill="#309743" transform="translate(203,223)"/>
<path d="M0 0 C8.22088334 3.74668577 18.35143398 12.68937739 22 21 C19 21 19 21 17.08984375 19.12890625 C16.37957031 18.28199219 15.66929687 17.43507813 14.9375 16.5625 C10.89134011 11.88412763 6.57444163 7.82144187 1.87109375 3.8125 C1.25363281 3.214375 0.63617188 2.61625 0 2 C0 1.34 0 0.68 0 0 Z " fill="#288B37" transform="translate(160,23)"/>
<path d="M0 0 C0.33 0 0.66 0 1 0 C1.02907584 4.3958194 1.0468244 8.79161399 1.0625 13.1875 C1.07087891 14.43337891 1.07925781 15.67925781 1.08789062 16.96289062 C1.09111328 18.16494141 1.09433594 19.36699219 1.09765625 20.60546875 C1.10289307 21.71043701 1.10812988 22.81540527 1.11352539 23.95385742 C1.00901923 26.75799379 0.64097959 29.27417329 0 32 C-0.66 32 -1.32 32 -2 32 C-1.88184693 27.76396537 -1.75760568 23.52816674 -1.62768555 19.29248047 C-1.58433769 17.8511238 -1.54266248 16.40971582 -1.50268555 14.96826172 C-1.44497912 12.89795459 -1.38128629 10.82790568 -1.31640625 8.7578125 C-1.27974854 7.5114502 -1.24309082 6.26508789 -1.20532227 4.98095703 C-1 2 -1 2 0 0 Z " fill="#268034" transform="translate(278,251)"/>
<path d="M0 0 C0.66 0 1.32 0 2 0 C4.30420619 8.26467344 5.45346447 18.34238417 1.953125 26.4140625 C1.63859375 26.93742187 1.3240625 27.46078125 1 28 C0.0178006 24.72373625 -0.11580914 21.77211881 -0.09765625 18.359375 C-0.09443359 17.28945313 -0.09121094 16.21953125 -0.08789062 15.1171875 C-0.07951172 14.00601562 -0.07113281 12.89484375 -0.0625 11.75 C-0.05798828 10.62335938 -0.05347656 9.49671875 -0.04882812 8.3359375 C-0.03705397 5.55723783 -0.0206084 2.77864591 0 0 Z " fill="#288A38" transform="translate(248,257)"/>
<path d="M0 0 C4.09634929 3.48880086 5.98160457 7.52409284 8.1875 12.3125 C8.72020508 13.41368164 8.72020508 13.41368164 9.26367188 14.53710938 C11.38691753 19.07771252 12.55777678 23.00353764 13 28 C12.34 28 11.68 28 11 28 C10.62488281 26.94941406 10.24976563 25.89882812 9.86328125 24.81640625 C7.32041352 17.80640615 4.85407318 11.05573349 0.8828125 4.69921875 C0 3 0 3 0 0 Z " fill="#228634" transform="translate(182,45)"/>
<path d="M0 0 C0.99 0.33 1.98 0.66 3 1 C1.576875 2.3303125 1.576875 2.3303125 0.125 3.6875 C-4.36499906 8.14995305 -8.07025549 13.15787359 -11.86328125 18.20703125 C-14 21 -14 21 -16 23 C-15.45738127 19.07116564 -14.43123177 16.81746049 -11.9375 13.75 C-11.31617187 12.98300781 -10.69484375 12.21601563 -10.0546875 11.42578125 C-6.77401872 7.55259625 -3.41649701 3.7537097 0 0 Z " fill="#278D38" transform="translate(137,193)"/>
<path d="M0 0 C1.828125 0.19140625 1.828125 0.19140625 4 1 C5.484375 3.21484375 5.484375 3.21484375 6.75 5.9375 C7.17796875 6.83339844 7.6059375 7.72929688 8.046875 8.65234375 C9 11 9 11 9 13 C8.34 13 7.68 13 7 13 C6.32845067 11.71086513 5.66291141 10.41859796 5 9.125 C4.62875 8.40570313 4.2575 7.68640625 3.875 6.9453125 C3 5 3 5 3 3 C2.34 3 1.68 3 1 3 C0.80664062 3.69867188 0.61328125 4.39734375 0.4140625 5.1171875 C0.15367187 6.02726562 -0.10671875 6.93734375 -0.375 7.875 C-0.63023437 8.77992187 -0.88546875 9.68484375 -1.1484375 10.6171875 C-2 13 -2 13 -4 15 C-5.32830615 11.01508155 -4.23204404 9.59951452 -2.5625 5.8125 C-2.08941406 4.72582031 -1.61632812 3.63914063 -1.12890625 2.51953125 C-0.75636719 1.68808594 -0.38382812 0.85664062 0 0 Z " fill="#207F2E" transform="translate(287,49)"/>
<path d="M0 0 C0.66 0.33 1.32 0.66 2 1 C1.89053657 5.29221231 1.75981105 9.5835149 1.625 13.875 C1.5940625 15.09832031 1.563125 16.32164062 1.53125 17.58203125 C1.49257813 18.74863281 1.45390625 19.91523438 1.4140625 21.1171875 C1.3826416 22.19597168 1.3512207 23.27475586 1.31884766 24.38623047 C1 27 1 27 -1 29 C-1.02927632 25.47918442 -1.04689119 21.95840061 -1.0625 18.4375 C-1.07087891 17.44685547 -1.07925781 16.45621094 -1.08789062 15.43554688 C-1.10536914 10.17451301 -0.92308398 5.18235335 0 0 Z " fill="#258034" transform="translate(53,238)"/>
<path d="M0 0 C2.35350042 2.35350042 2.3702574 2.96015272 2.5 6.1875 C2.41852303 11.23907243 1.02085909 15.41987239 -0.8125 20.0625 C-1.07289063 20.72983154 -1.33328125 21.39716309 -1.6015625 22.0847168 C-2.39453125 23.97265625 -2.39453125 23.97265625 -4 27 C-4.99 27.33 -5.98 27.66 -7 28 C-6.11826306 25.20783302 -5.21098933 22.47034775 -4.01171875 19.796875 C-1.08607801 13.20088497 -0.24702184 7.1883355 0 0 Z " fill="#248333" transform="translate(243,106)"/>
<path d="M0 0 C4.51478077 4.09321991 8.65022991 10.32158453 9.234375 16.46484375 C9 18.625 9 18.625 8 22 C7.34 22.33 6.68 22.66 6 23 C6.185625 21.3603125 6.185625 21.3603125 6.375 19.6875 C6.43082284 14.46806444 3.99017829 10.85445556 1.3125 6.515625 C0 4 0 4 0 0 Z " fill="#2A8C38" transform="translate(341,136)"/>
<path d="M0 0 C-3.33374617 7.67825581 -10.45759716 13.96738243 -17 19 C-17 18.01 -17 17.02 -17 16 C-16.38125 15.7525 -15.7625 15.505 -15.125 15.25 C-12.90020824 14.20501631 -12.90020824 14.20501631 -12.1484375 12.25 C-10.6589973 9.33191308 -8.68989258 7.18163396 -6.5 4.75 C-5.30890625 3.41195312 -5.30890625 3.41195312 -4.09375 2.046875 C-2 0 -2 0 0 0 Z " fill="#2A963E" transform="translate(184,151)"/>
<path d="M0 0 C0.33 0 0.66 0 1 0 C0.34 9.57 -0.32 19.14 -1 29 C-1.33 29 -1.66 29 -2 29 C-2.19572967 25.95866211 -2.38183916 22.91723937 -2.5625 19.875 C-2.61857422 19.0190625 -2.67464844 18.163125 -2.73242188 17.28125 C-2.99798352 12.67818141 -3.00515346 8.54180454 -2 4 C-1.34 4 -0.68 4 0 4 C0 2.68 0 1.36 0 0 Z " fill="#227830" transform="translate(105,250)"/>
<path d="M0 0 C2.20805524 -0.0544452 4.41650554 -0.09299283 6.625 -0.125 C7.85476562 -0.14820313 9.08453125 -0.17140625 10.3515625 -0.1953125 C15.01078962 0.05411079 18.64101828 0.64101828 22 4 C14.41 3.34 6.82 2.68 -1 2 C-0.67 1.34 -0.34 0.68 0 0 Z " fill="#268037" transform="translate(209,221)"/>
<path d="M0 0 C1.07980476 3.21750519 0.97733906 4.82122732 -0.43359375 7.890625 C-0.75263672 8.59960938 -1.07167969 9.30859375 -1.40039062 10.0390625 C-1.74263672 10.76867187 -2.08488281 11.49828125 -2.4375 12.25 C-2.77587891 12.99507812 -3.11425781 13.74015625 -3.46289062 14.5078125 C-4.29826304 16.34327865 -5.14777967 18.17229555 -6 20 C-6.66 20 -7.32 20 -8 20 C-6.12849037 12.84870304 -3.50213658 6.50594543 0 0 Z " fill="#208832" transform="translate(67,198)"/>
<path d="M0 0 C2.86697492 1.28519565 4.97607712 2.57129254 7 5 C7 5.66 7 6.32 7 7 C7.66 7 8.32 7 9 7 C12 10.46153846 12 10.46153846 12 13 C8.14561649 11.48081731 6.26394504 9.17304038 3.75 5.9375 C3.04359375 5.03902344 2.3371875 4.14054687 1.609375 3.21484375 C0 1 0 1 0 0 Z " fill="#298338" transform="translate(70,310)"/>
<path d="M0 0 C0.66 0.33 1.32 0.66 2 1 C0.53967505 6.31027254 -1.98320986 10.46330032 -5 15 C-5.66 14.34 -6.32 13.68 -7 13 C-3.535 6.565 -3.535 6.565 0 0 Z " fill="#248535" transform="translate(263,285)"/>
<path d="M0 0 C0.66 0.33 1.32 0.66 2 1 C-0.31 5.29 -2.62 9.58 -5 14 C-5.66 13.67 -6.32 13.34 -7 13 C-5.58832253 7.73829306 -3.25149768 4.27828642 0 0 Z " fill="#238933" transform="translate(119,216)"/>
<path d="M0 0 C0.66 0 1.32 0 2 0 C0.87548273 2.9719385 -0.22293791 5.33440687 -2 8 C-2.99 8 -3.98 8 -5 8 C-5.33 6.02 -5.66 4.04 -6 2 C-5.34 1.67 -4.68 1.34 -4 1 C-4 1.99 -4 2.98 -4 4 C-3.34 4 -2.68 4 -2 4 C-1.34 2.68 -0.68 1.36 0 0 Z " fill="#1E832E" transform="translate(13,129)"/>
<path d="M0 0 C3.02952396 1.51476198 3.37093771 3.85368016 4.625 6.9375 C5.07101562 8.01902344 5.51703125 9.10054687 5.9765625 10.21484375 C7 13 7 13 7 15 C4 14 4 14 2.83203125 11.85546875 C2.49558594 10.97503906 2.15914063 10.09460938 1.8125 9.1875 C1.46832031 8.31480469 1.12414062 7.44210938 0.76953125 6.54296875 C0 4 0 4 0 0 Z " fill="#228031" transform="translate(330,112)"/>
<path d="M0 0 C0.99 0.33 1.98 0.66 3 1 C0.03 3.97 -2.94 6.94 -6 10 C-6.99 9.67 -7.98 9.34 -9 9 C-6 6 -3 3 0 0 Z " fill="#2A903B" transform="translate(343,160)"/>
<path d="M0 0 C0.66 0 1.32 0 2 0 C3.5056904 5.80766296 4.21824777 10.9981863 4 17 C1.01708988 11.88643979 -0.36844835 5.89517358 0 0 Z " fill="#228432" transform="translate(295,63)"/>
<path d="M0 0 C0 0.66 0 1.32 0 2 C-0.99 2 -1.98 2 -3 2 C-3 2.66 -3 3.32 -3 4 C-6 6 -6 6 -9 6 C-9.33 6.99 -9.66 7.98 -10 9 C-11.32 8.67 -12.64 8.34 -14 8 C-12.04532248 6.66101601 -10.0866421 5.32870953 -8.125 4 C-7.03445312 3.2575 -5.94390625 2.515 -4.8203125 1.75 C-2 0 -2 0 0 0 Z " fill="#1D712C" transform="translate(51,19)"/>
<path d="M0 0 C4.60139641 1.48868707 7.50227094 3.74629855 11 7 C11 7.66 11 8.32 11 9 C7.03935893 7.25731793 3.25563451 4.85325271 0 2 C0 1.34 0 0.68 0 0 Z " fill="#268534" transform="translate(229,232)"/>
<path d="M0 0 C1.41791408 0.45445964 2.83428046 0.91374944 4.25 1.375 C5.43335938 1.75785156 5.43335938 1.75785156 6.640625 2.1484375 C8.86627958 2.95173667 10.90931672 3.89711662 13 5 C13 5.66 13 6.32 13 7 C11.58208592 6.54554036 10.16571954 6.08625056 8.75 5.625 C7.96109375 5.36976563 7.1721875 5.11453125 6.359375 4.8515625 C4.13372042 4.04826333 2.09068328 3.10288338 0 2 C0 1.34 0 0.68 0 0 Z " fill="#248437" transform="translate(247,229)"/>
<path d="M0 0 C4.3488459 0.50178991 6.89443878 3.09697538 10 6 C11.375 8.3125 11.375 8.3125 12 10 C11.01 10.495 11.01 10.495 10 11 C9.52949219 10.45730469 9.05898437 9.91460937 8.57421875 9.35546875 C7.95160156 8.64003906 7.32898438 7.92460937 6.6875 7.1875 C6.07261719 6.47980469 5.45773438 5.77210937 4.82421875 5.04296875 C3.26665665 3.29863261 1.67341125 1.63221959 0 0 Z " fill="#248937" transform="translate(67,121)"/>
<path d="M0 0 C7.66742597 5.96583144 7.66742597 5.96583144 9 11 C4.70073737 9.40768051 2.64994267 6.60686641 0 3 C0 2.01 0 1.02 0 0 Z " fill="#238933" transform="translate(321,101)"/>
<path d="M0 0 C3.94139078 1.66751148 6.7892812 4.22710649 10 7 C9.34 7.66 8.68 8.32 8 9 C6.66079162 7.88200014 5.32877444 6.75538103 4 5.625 C2.88625 4.68527344 2.88625 4.68527344 1.75 3.7265625 C1.1725 3.15679688 0.595 2.58703125 0 2 C0 1.34 0 0.68 0 0 Z " fill="#267F33" transform="translate(160,23)"/>
<path d="M0 0 C0.515625 0.37125 1.03125 0.7425 1.5625 1.125 C-3.66262279 2.59170113 -8.0189234 3.35077402 -13.4375 3.125 C-9.32666891 0.82293459 -4.62702644 -1.66098385 0 0 Z " fill="#217E2F" transform="translate(291.4375,240.875)"/>
<path d="M0 0 C0.33 1.32 0.66 2.64 1 4 C0.34 4 -0.32 4 -1 4 C-1.2475 4.763125 -1.495 5.52625 -1.75 6.3125 C-3.10995558 9.2364045 -4.31585826 10.30004356 -7 12 C-5.44298069 7.32894208 -2.91552627 3.91294315 0 0 Z " fill="#238234" transform="translate(133,225)"/>
<path d="M0 0 C0.33 0.66 0.66 1.32 1 2 C-0.21484375 4.3828125 -0.21484375 4.3828125 -1.9375 7.125 C-2.50339844 8.03507813 -3.06929687 8.94515625 -3.65234375 9.8828125 C-4.09707031 10.58148438 -4.54179687 11.28015625 -5 12 C-5.80576116 9.67509679 -6.17106563 8.45649006 -5.29296875 6.11328125 C-2.22222222 1.11111111 -2.22222222 1.11111111 0 0 Z " fill="#1D752D" transform="translate(190,139)"/>
<path d="M0 0 C4.99911924 0.47610659 7.97832683 2.03162219 12 5 C11.34 5.66 10.68 6.32 10 7 C8.33073546 6.02526874 6.66464358 5.04510211 5 4.0625 C4.071875 3.51722656 3.14375 2.97195313 2.1875 2.41015625 C1.465625 1.94480469 0.74375 1.47945313 0 1 C0 0.67 0 0.34 0 0 Z " fill="#1E722C" transform="translate(91,331)"/>
<path d="M0 0 C1.98 0.495 1.98 0.495 4 1 C4 1.99 4 2.98 4 4 C3.01 3.67 2.02 3.34 1 3 C1 5.31 1 7.62 1 10 C0.34 10 -0.32 10 -1 10 C-0.67 6.7 -0.34 3.4 0 0 Z " fill="#1A7E26" transform="translate(259,40)"/>
<path d="M0 0 C5.445 1.485 5.445 1.485 11 3 C11 3.66 11 4.32 11 5 C3.375 4.125 3.375 4.125 0 3 C0 2.01 0 1.02 0 0 Z " fill="#247A32" transform="translate(125,345)"/>
<path d="M0 0 C0.66 0 1.32 0 2 0 C2.83819158 1.62249941 3.6704116 3.24808497 4.5 4.875 C4.9640625 5.77992187 5.428125 6.68484375 5.90625 7.6171875 C7 10 7 10 7 12 C6.34 12 5.68 12 5 12 C4.16180842 10.37750059 3.3295884 8.75191503 2.5 7.125 C2.0359375 6.22007813 1.571875 5.31515625 1.09375 4.3828125 C0 2 0 2 0 0 Z " fill="#248835" transform="translate(289,50)"/>
<path d="M0 0 C-2.90092502 1.93395001 -3.89674737 2.30131941 -7.1875 2.625 C-8.445625 2.74875 -9.70375 2.8725 -11 3 C-11 2.34 -11 1.68 -11 1 C-3.57142857 -1.42857143 -3.57142857 -1.42857143 0 0 Z " fill="#30813F" transform="translate(327,174)"/>
<path d="M0 0 C2.96052484 3.36423277 3.92289822 6.69159287 5 11 C4.01 11.495 4.01 11.495 3 12 C2.49166409 10.75336669 1.99368855 9.50250613 1.5 8.25 C1.2215625 7.55390625 0.943125 6.8578125 0.65625 6.140625 C0 4 0 4 0 0 Z " fill="#268536" transform="translate(273,56)"/>
<path d="M0 0 C0 0.99 0 1.98 0 3 C-1.42578125 4.421875 -1.42578125 4.421875 -3.3125 5.75 C-3.92738281 6.19859375 -4.54226562 6.6471875 -5.17578125 7.109375 C-7 8 -7 8 -10 7 C-6.80331012 4.3513141 -3.60513403 2.06007659 0 0 Z " fill="#258535" transform="translate(184,182)"/>
<path d="M0 0 C0.99 0.33 1.98 0.66 3 1 C1.8803014 2.00593243 0.7540588 3.0045849 -0.375 4 C-1.00148437 4.556875 -1.62796875 5.11375 -2.2734375 5.6875 C-4 7 -4 7 -6 7 C-4.61990379 3.66476748 -3.15049348 1.81392049 0 0 Z " fill="#227A33" transform="translate(156,177)"/>
<path d="M0 0 C0.99 0.33 1.98 0.66 3 1 C2.4140625 7.15234375 2.4140625 7.15234375 2 9 C1.01 9.495 1.01 9.495 0 10 C0 6.7 0 3.4 0 0 Z " fill="#1D712F" transform="translate(347,149)"/>
<path d="M0 0 C0.66 0 1.32 0 2 0 C1.125 7.75 1.125 7.75 0 10 C-0.66 10 -1.32 10 -2 10 C-1.34 6.7 -0.68 3.4 0 0 Z " fill="#207D2D" transform="translate(257,52)"/>
<path d="M0 0 C0.33 0.66 0.66 1.32 1 2 C-0.98 4.64 -2.96 7.28 -5 10 C-5.66 9.67 -6.32 9.34 -7 9 C-4.69 6.03 -2.38 3.06 0 0 Z " fill="#1C762B" transform="translate(27,36)"/>
<path d="M0 0 C0.33 0.99 0.66 1.98 1 3 C-1.3125 6.1875 -1.3125 6.1875 -4 9 C-4.66 9 -5.32 9 -6 9 C-4.47291037 5.56404834 -2.40072955 2.88087546 0 0 Z " fill="#227931" transform="translate(140,216)"/>
<path d="M0 0 C0.66 0 1.32 0 2 0 C0.68775452 3.93673644 -0.91910327 6.22719294 -4 9 C-3.4739075 5.21213403 -2.61896089 2.82847776 0 0 Z " fill="#217A32" transform="translate(125,207)"/>
<path d="M0 0 C0.99 0.33 1.98 0.66 3 1 C0.36 2.98 -2.28 4.96 -5 7 C-5 6.01 -5 5.02 -5 4 C-2.6875 1.75 -2.6875 1.75 0 0 Z " fill="#238031" transform="translate(164,170)"/>
<path d="M0 0 C0.33 0.66 0.66 1.32 1 2 C-0.32 3.65 -1.64 5.3 -3 7 C-4.32 6.67 -5.64 6.34 -7 6 C-4.69 4.02 -2.38 2.04 0 0 Z " fill="#298038" transform="translate(217,158)"/>
<path d="M0 0 C2.72869407 0.03287583 5.2966618 0.56397771 8 1 C8 1.66 8 2.32 8 3 C4.7 2.67 1.4 2.34 -2 2 C-1.34 1.34 -0.68 0.68 0 0 Z " fill="#237434" transform="translate(139,349)"/>
<path d="M0 0 C0.66 0.66 1.32 1.32 2 2 C0.02 4.97 0.02 4.97 -2 8 C-2.99 7.67 -3.98 7.34 -5 7 C-3.35 4.69 -1.7 2.38 0 0 Z " fill="#268A3D" transform="translate(269,301)"/>
<path d="M0 0 C0.66 0 1.32 0 2 0 C1.5205537 4.21912747 0.83374881 6.79663178 -2 10 C-1.54177532 6.53058454 -1.10868317 3.32604951 0 0 Z " fill="#228336" transform="translate(273,291)"/>
<path d="M0 0 C0.33 0.99 0.66 1.98 1 3 C-0.25 4.5625 -0.25 4.5625 -2 6 C-4.1875 5.6875 -4.1875 5.6875 -6 5 C-4.02 3.35 -2.04 1.7 0 0 Z " fill="#248631" transform="translate(155,202)"/>
<path d="M0 0 C4.8 3.44615385 4.8 3.44615385 5.8125 6.25 C5.874375 6.8275 5.93625 7.405 6 8 C2.00003714 6.66667905 1.16217663 4.5042173 -1 1 C-0.67 0.67 -0.34 0.34 0 0 Z " fill="#318B42" transform="translate(349,184)"/>
<path d="M0 0 C0.99 0 1.98 0 3 0 C4.85776765 3.13498292 5.20140476 5.37471432 5 9 C2.67527795 6.14693203 1.2491742 3.45925163 0 0 Z " fill="#257C31" transform="translate(78,132)"/>
<path d="M0 0 C1.99097846 2.98646769 2.94124926 5.59687262 4 9 C1 8 1 8 -0.25 6.1875 C-1.11637742 3.66056586 -0.88492145 2.47778006 0 0 Z " fill="#23833B" transform="translate(337,127)"/>
<path d="M0 0 C3.25543229 0.34879632 4.01873107 1.02133261 6.25 3.5625 C6.8275 4.366875 7.405 5.17125 8 6 C4.74456771 5.65120368 3.98126893 4.97866739 1.75 2.4375 C1.1725 1.633125 0.595 0.82875 0 0 Z " fill="#1E742A" transform="translate(122,329)"/>
<path d="M0 0 C0.33 0.99 0.66 1.98 1 3 C-0.98 4.32 -2.96 5.64 -5 7 C-5.66 6.34 -6.32 5.68 -7 5 C-4.69 3.35 -2.38 1.7 0 0 Z " fill="#2E8E3F" transform="translate(241,315)"/>
<path d="M0 0 C0.66 0.33 1.32 0.66 2 1 C1.34 3.64 0.68 6.28 0 9 C-0.66 8.67 -1.32 8.34 -2 8 C-1.125 2.25 -1.125 2.25 0 0 Z " fill="#258238" transform="translate(247,286)"/>
<path d="M0 0 C0.33 0.99 0.66 1.98 1 3 C-0.9375 5.6875 -0.9375 5.6875 -3 8 C-3.99 7.67 -4.98 7.34 -6 7 C-4.02 4.69 -2.04 2.38 0 0 Z " fill="#2C833B" transform="translate(224,150)"/>
<path d="M0 0 C0.66 0.99 1.32 1.98 2 3 C0.6875 5.5 0.6875 5.5 -1 8 C-1.99 8 -2.98 8 -4 8 C-4 7.34 -4 6.68 -4 6 C-3.34 6 -2.68 6 -2 6 C-1.34 4.02 -0.68 2.04 0 0 Z " fill="#2A943A" transform="translate(281,63)"/>
<path d="M0 0 C4.875 4.625 4.875 4.625 6 8 C2.83884224 6.63016497 2.0072908 6.0109362 0 3 C0 2.01 0 1.02 0 0 Z " fill="#217A2F" transform="translate(264,43)"/>
<path d="M0 0 C3.37503669 1.1858237 5.64722731 2.27573689 8 5 C7.01 5.495 7.01 5.495 6 6 C3.96166576 4.7260411 1.96147874 3.38938077 0 2 C0 1.34 0 0.68 0 0 Z " fill="#217931" transform="translate(152,18)"/>
<path d="M0 0 C0.33 0.99 0.66 1.98 1 3 C-0.98 4.32 -2.96 5.64 -5 7 C-5.66 6.67 -6.32 6.34 -7 6 C-4.69 4.02 -2.38 2.04 0 0 Z " fill="#2A913C" transform="translate(233,321)"/>
<path d="M0 0 C3 1 3 1 4.6875 4.0625 C5.120625 5.031875 5.55375 6.00125 6 7 C5.01 7.495 5.01 7.495 4 8 C0 2.25 0 2.25 0 0 Z " fill="#238831" transform="translate(125,324)"/>
<path d="M0 0 C0.66 0 1.32 0 2 0 C3.25664978 2.90600261 4 4.79604584 4 8 C3.34 8 2.68 8 2 8 C1.34 5.36 0.68 2.72 0 0 Z " fill="#227C32" transform="translate(55,279)"/>
<path d="M0 0 C2.97 0.33 5.94 0.66 9 1 C8.34 1.66 7.68 2.32 7 3 C3.9375 2.75 3.9375 2.75 1 2 C0.67 1.34 0.34 0.68 0 0 Z " fill="#1E7F30" transform="translate(207,225)"/>
<path d="M0 0 C0.66 0 1.32 0 2 0 C0.55746343 3.36591866 -1.33264727 5.51047079 -4 8 C-3.40312566 4.65750371 -2.26396123 2.53563658 0 0 Z " fill="#208232" transform="translate(182,151)"/>
<path d="M0 0 C-1.39332574 3.36720387 -2.9789286 4.9859524 -6 7 C-5.37162381 3.35541809 -4.14650034 0 0 0 Z " fill="#1F762D" transform="translate(22,121)"/>
<path d="M0 0 C0.99 0.66 1.98 1.32 3 2 C0.36 2.99 -2.28 3.98 -5 5 C-5.33 4.34 -5.66 3.68 -6 3 C-4.02 2.01 -2.04 1.02 0 0 Z " fill="#26883B" transform="translate(29,116)"/>
</svg>
